PathFileType	4	(x/y/z)	S06_BK_Cal_T01
DataRate	CameraRate	NumFrames	NumMarkers	Units	OrigDataRate	OrigDataStartFrame	OrigNumFrames
240	240	4	51	mm	240	1081	2880
Frame#	Time	Sternum			R.Acromium			L.Acromium			Top.Head			R.ASIS			L.ASIS			R.PSIS			L.PSIS			R.Great.Tro			L.Great.Tro			R.Iliac.Crest			L.Iliac.Crest			V.Sacral			R.Thigh.Upper.Post			R.Thigh.Lower.Ant			R.Thigh.Lower.Post			R.Thigh.Upper.Ant			R.Knee.Lat			R.Knee.Med			R.Shank.Upper.Post			R.Shank.Lower.Ant			R.Shank.Lower.Post			R.Shank.Upper.Ant			R.Ankle.Lat			R.Ankle.Med			R.Heel.Upper			R.Heel.Med			R.Heel.Lat			R.Toe.Lat			R.Toe.Med			R.Toe.Tip			L.Thigh.Upper.Post			L.Thigh.Lower.Ant			L.Thigh.Lower.Post			L.Thigh.Upper.Ant			L.Knee.Lat			L.Knee.Med			L.Shank.Upper.Post			L.Shank.Lower.Ant			L.Shank.Lower.Post			L.Shank.Upper.Ant			L.Ankle.Lat			L.Ankle.Med			L.Heel.Upper			L.Heel.Med			L.Heel.Lat			L.Toe.Lat			L.Toe.Med			L.Toe.Tip			Cervical.Spine			Back			
		X1	Y1	Z1	X2	Y2	Z2	X3	Y3	Z3	X4	Y4	Z4	X5	Y5	Z5	X6	Y6	Z6	X7	Y7	Z7	X8	Y8	Z8	X9	Y9	Z9	X10	Y10	Z10	X11	Y11	Z11	X12	Y12	Z12	X13	Y13	Z13	X14	Y14	Z14	X15	Y15	Z15	X16	Y16	Z16	X17	Y17	Z17	X18	Y18	Z18	X19	Y19	Z19	X20	Y20	Z20	X21	Y21	Z21	X22	Y22	Z22	X23	Y23	Z23	X24	Y24	Z24	X25	Y25	Z25	X26	Y26	Z26	X27	Y27	Z27	X28	Y28	Z28	X29	Y29	Z29	X30	Y30	Z30	X31	Y31	Z31	X32	Y32	Z32	X33	Y33	Z33	X34	Y34	Z34	X35	Y35	Z35	X36	Y36	Z36	X37	Y37	Z37	X38	Y38	Z38	X39	Y39	Z39	X40	Y40	Z40	X41	Y41	Z41	X42	Y42	Z42	X43	Y43	Z43	X44	Y44	Z44	X45	Y45	Z45	X46	Y46	Z46	X47	Y47	Z47	X48	Y48	Z48	X49	Y49	Z49	X50	Y50	Z50	X51	Y51	Z51	

1081	4.5	715.46	1241.4	323.6	601.19	1473.3	482.56	596.83	1467	151.3	676.07	1765.3	321.46	664.53	1008.3	447.86	670.17	1003.1	194.89	466.06	1029.7	351.47	467.37	1032.4	270.83	612.64	944.3	498.97	579.63	941.36	135	580.27	1084.9	477.54	601.86	1078.4	157.19	452.6	996.09	313.89	691.74	706.02	515.01	772.23	646.81	488.85	709.63	618.97	501.59	754.53	736.51	494.73	757.86	516.45	496.56	766.5	514.31	369.54	646.48	317.37	507.2	681.21	236.38	485.1	616.57	246.04	495.68	709.75	307.22	496.74	596.71	112.87	474.42	611.33	113.66	386.33	522.5	74.716	428.54	531.56	43.84	397.66	529.23	43.377	463.25	704.6	36.254	507.21	734.49	44.397	387.42	799.58	54.509	436.36	717.78	704.39	115.33	793.5	640.4	164.23	730.83	614.2	123.28	771.56	733.1	155.47	736.97	519.47	130.16	768.81	518.94	247.52	631.74	321.01	126.6	673.7	242.39	127.06	604.88	252.97	140.15	696.19	310.02	119.82	596.29	110.61	134.84	608.93	109.97	226.36	517.76	71.754	178.42	524.84	45.438	210.94	521.5	45.821	148.97	697.21	47.064	100.35	726.45	44.504	217.36	794.19	59.068	158.89	557.53	1506.8	317.92	480.09	1244.8	316.83
1082	4.5042	715.48	1241.4	323.61	601.22	1473.3	482.57	596.86	1467	151.3	676.12	1765.3	321.49	664.54	1008.3	447.86	670.18	1003.1	194.89	466.07	1029.7	351.47	467.38	1032.4	270.83	612.65	944.3	498.97	579.64	941.36	135	580.28	1084.8	477.54	601.87	1078.4	157.18	452.61	996.09	313.89	691.75	706.02	515.02	772.24	646.8	488.85	709.64	618.97	501.6	754.54	736.5	494.73	757.87	516.44	496.56	766.51	514.3	369.54	646.49	317.37	507.2	681.21	236.37	485.1	616.57	246.04	495.68	709.76	307.22	496.74	596.71	112.87	474.42	611.33	113.65	386.33	522.5	74.715	428.54	531.56	43.839	397.66	529.23	43.38	463.25	704.6	36.254	507.21	734.49	44.396	387.42	799.58	54.509	436.36	717.79	704.39	115.33	793.51	640.4	164.23	730.84	614.19	123.28	771.57	733.1	155.47	736.98	519.47	130.16	768.82	518.93	247.52	631.75	321.01	126.6	673.7	242.38	127.06	604.88	252.97	140.15	696.2	310.02	119.82	596.29	110.61	134.84	608.93	109.97	226.36	517.77	71.755	178.42	524.84	45.438	210.95	521.5	45.821	148.97	697.21	47.062	100.35	726.45	44.504	217.36	794.19	59.067	158.89	557.56	1506.8	317.92	480.11	1244.8	316.83
1083	4.5083	715.5	1241.4	323.62	601.26	1473.3	482.58	596.9	1467	151.31	676.17	1765.3	321.53	664.55	1008.3	447.86	670.2	1003.1	194.89	466.08	1029.7	351.47	467.39	1032.4	270.83	612.66	944.3	498.97	579.65	941.35	135	580.29	1084.8	477.54	601.87	1078.4	157.17	452.62	996.09	313.89	691.76	706.02	515.02	772.24	646.8	488.86	709.65	618.97	501.6	754.55	736.5	494.73	757.88	516.44	496.56	766.51	514.3	369.54	646.49	317.37	507.2	681.21	236.37	485.11	616.57	246.04	495.68	709.76	307.22	496.74	596.71	112.87	474.42	611.33	113.65	386.33	522.5	74.714	428.54	531.56	43.837	397.66	529.23	43.382	463.25	704.6	36.254	507.21	734.49	44.396	387.42	799.58	54.508	436.36	717.8	704.39	115.33	793.52	640.4	164.23	730.85	614.19	123.28	771.58	733.09	155.47	736.98	519.47	130.16	768.83	518.93	247.52	631.75	321.01	126.59	673.7	242.38	127.06	604.89	252.97	140.15	696.2	310.02	119.82	596.29	110.62	134.84	608.93	109.97	226.35	517.77	71.756	178.42	524.84	45.439	210.95	521.5	45.821	148.97	697.21	47.061	100.35	726.45	44.504	217.36	794.19	59.067	158.89	557.6	1506.8	317.93	480.13	1244.8	316.83
1084	4.5125	715.52	1241.4	323.62	601.29	1473.3	482.58	596.94	1467	151.31	676.22	1765.3	321.56	664.57	1008.3	447.86	670.21	1003.1	194.89	466.1	1029.7	351.48	467.4	1032.4	270.83	612.67	944.3	498.98	579.66	941.35	135	580.3	1084.8	477.54	601.88	1078.4	157.16	452.63	996.09	313.89	691.77	706.02	515.02	772.25	646.79	488.86	709.66	618.97	501.6	754.56	736.5	494.74	757.88	516.44	496.56	766.52	514.3	369.54	646.5	317.37	507.21	681.22	236.37	485.11	616.57	246.03	495.68	709.77	307.22	496.75	596.71	112.87	474.42	611.33	113.65	386.33	522.5	74.713	428.54	531.56	43.835	397.66	529.23	43.383	463.25	704.6	36.254	507.21	734.49	44.395	387.42	799.58	54.508	436.36	717.81	704.39	115.33	793.53	640.39	164.23	730.86	614.19	123.28	771.59	733.09	155.47	736.99	519.47	130.16	768.83	518.93	247.52	631.76	321.01	126.59	673.71	242.38	127.06	604.89	252.97	140.15	696.21	310.02	119.82	596.29	110.62	134.83	608.93	109.97	226.35	517.77	71.757	178.42	524.84	45.439	210.95	521.5	45.821	148.97	697.21	47.06	100.35	726.45	44.505	217.36	794.19	59.066	158.89	557.63	1506.8	317.93	480.15	1244.8	316.84
